<?xml version="1.0" encoding="UTF-8" standalone="no"?>
<svg
   xmlns:dc="http://purl.org/dc/elements/1.1/"
   xmlns:cc="http://creativecommons.org/ns#"
   xmlns:rdf="http://www.w3.org/1999/02/22-rdf-syntax-ns#"
   xmlns:svg="http://www.w3.org/2000/svg"
   xmlns="http://www.w3.org/2000/svg"
   xmlns:sodipodi="http://sodipodi.sourceforge.net/DTD/sodipodi-0.dtd"
   xmlns:inkscape="http://www.inkscape.org/namespaces/inkscape"
   viewBox="0 0 699.99998 700"
   version="1.1"
   id="svg12"
   sodipodi:docname="uol-logo.svg"
   width="700"
   height="700"
   inkscape:export-filename="C:\Users\alex\sites\uol-logo-0.png"
   inkscape:export-xdpi="561.73712"
   inkscape:export-ydpi="561.73712"
   inkscape:version="0.92.3 (2405546, 2018-03-11)">
  <metadata
     id="metadata16">
    <rdf:RDF>
      <cc:Work
         rdf:about="">
        <dc:format>image/svg+xml</dc:format>
        <dc:type
           rdf:resource="http://purl.org/dc/dcmitype/StillImage" />
        <dc:title></dc:title>
      </cc:Work>
    </rdf:RDF>
  </metadata>
  <sodipodi:namedview
     pagecolor="#ffffff"
     bordercolor="#666666"
     borderopacity="1"
     objecttolerance="10"
     gridtolerance="10"
     guidetolerance="10"
     inkscape:pageopacity="0"
     inkscape:pageshadow="2"
     inkscape:window-width="1600"
     inkscape:window-height="838"
     id="namedview14"
     showgrid="false"
     inkscape:zoom="0.53967568"
     inkscape:cx="140.90714"
     inkscape:cy="205.69012"
     inkscape:window-x="-8"
     inkscape:window-y="-8"
     inkscape:window-maximized="1"
     inkscape:current-layer="svg12" />
  <defs
     id="defs2" />
  <circle
     cx="177.06383"
     cy="349.99905"
     r="96.186981"
     id="circle4"
     style="fill:#ff8000;stroke-width:4.00779104"
     inkscape:export-filename="C:\Users\alex\sites\uol-logo-4.png"
     inkscape:export-xdpi="71.342796"
     inkscape:export-ydpi="71.342796" />
  <path
     d="m 177.06382,259.02209 a 80.556594,80.556594 0 0 0 -80.155818,80.55662 c 0,4.40856 0.400779,8.41635 0.801558,12.82492 10.42026,-27.25297 38.87557,-46.89116 72.54101,-46.89116 a 77.35036,77.35036 0 0 1 65.32699,34.06624 h 0.40077 a 33.264663,33.264663 0 0 1 21.2413,7.214 43.684919,43.684919 0 0 0 0.40077,-7.214 80.556594,80.556594 0 0 0 -80.5566,-80.55662"
     id="path6"
     inkscape:connector-curvature="0"
     style="fill:#ffce00;stroke-width:4.00779104"
     inkscape:export-filename="C:\Users\alex\sites\uol-logo-4.png"
     inkscape:export-xdpi="71.342796"
     inkscape:export-ydpi="71.342796" />
  <path
     d="m 257.21964,346.79271 a 33.264663,33.264663 0 0 0 -21.2413,-7.214 h -0.40077 c -23.64596,0 -48.49427,20.43973 -55.70829,46.08957 a 38.87557,38.87557 0 0 0 4.80935,34.06624 h -7.6148 a 80.957373,80.957373 0 0 1 -79.35426,-67.33089 72.140234,72.140234 0 0 0 -4.007792,22.8444 66.529328,66.529328 0 0 0 23.245182,50.09741 105.4049,105.4049 0 0 0 30.45922,16.03113 90.175292,90.175292 0 0 0 29.65765,4.80938 95.786199,95.786199 0 0 0 72.14023,-32.86389 89.774513,89.774513 0 0 0 15.22961,-23.24521 c 0.40077,-1.60309 1.20233,-2.80545 1.60311,-4.40857 4.40857,-16.43194 0.80156,-30.45922 -8.81714,-38.87557"
     id="path8"
     inkscape:connector-curvature="0"
     style="fill:#ff0024;stroke-width:4.00779104"
     inkscape:export-filename="C:\Users\alex\sites\uol-logo-4.png"
     inkscape:export-xdpi="71.342796"
     inkscape:export-ydpi="71.342796" />
  <path
     d="m 614.31377,376.04961 c -14.8288,0 -21.64204,-8.01558 -21.64204,-22.84444 v -92.17919 h -46.08961 v 68.53325 a 65.32699,65.32699 0 0 0 -118.6306,0 v -36.47091 h -45.28803 v 64.12464 c 0,11.62261 -6.41247,19.63819 -16.43194,19.63819 -10.01949,0 -16.43195,-8.01558 -16.43195,-19.63819 v -64.12464 h -45.68882 v 64.92622 c 0,39.67711 24.44753,64.52542 62.12077,64.52542 30.4592,0 52.10128,-16.83271 58.91452,-44.08568 a 65.72777,65.72777 0 0 0 123.84071,1.20231 c 6.81327,29.2569 28.85614,42.08182 58.51377,42.08182 h 11.62261 v -45.6888 z m -127.04695,0.80154 a 19.638174,19.638174 0 1 1 19.63818,-19.63819 19.638174,19.638174 0 0 1 -19.63818,19.63819 z"
     id="path10"
     inkscape:connector-curvature="0"
     style="stroke-width:4.00779104"
     inkscape:export-filename="C:\Users\alex\sites\uol-logo-4.png"
     inkscape:export-xdpi="71.342796"
     inkscape:export-ydpi="71.342796" />
</svg>
