<svg xmlns="http://www.w3.org/2000/svg" viewBox="0 0 1310 469"><path d="M234.13.33C363.46.33 468.3 105.17 468.3 234.5S363.46 468.67 234.13 468.67-.04 363.83-.04 234.5 104.8.33 234.13.33z" fill="#ff8000"/><path d="M234.58 13.33c-108.07 0-195.67 87.62-195.67 195.71 0 10.54.86 20.88 2.46 30.97 25.31-66.11 94.41-113.57 175.74-113.57 67.93 0 127.33 33.11 159.82 82.53.2 0 .39-.02.59-.02 21.02 0 38.7 6.67 51.87 18.1.54-5.93.86-11.93.86-18.01 0-108.09-87.61-195.71-195.67-195.71" fill="#ffce00"/><path d="M429.39 227.05c-13.18-11.43-30.86-18.1-51.87-18.1-.2 0-.39.01-.59.02-57.58.34-118.15 50.36-135.48 112.03-9.24 32.86-4.34 62.41 10.93 82.91-5.86.53-11.79.84-17.79.84-97.53 0-178.37-71.37-193.21-164.74-6.67 17.43-10.34 36.13-10.34 55.62 0 47.87 21.9 91.06 57.04 121.84 21.69 17.34 46.52 30.9 73.52 39.69a233.832 233.832 0 0072.54 11.51c70.2 0 133.14-30.93 176.07-79.87a234.395 234.395 0 0036.69-56.48c1.4-3.73 2.64-7.51 3.72-11.33 11.05-39.36 1.81-73.96-21.23-93.94" fill="#ff0024"/><g><path d="M1299.02 297.44c-36.43 0-53.2-18.69-53.2-55.12V17.99h-111.68v166.56c-25.39-54.51-80.63-92.27-144.76-92.27s-119.37 37.76-144.76 92.27V95.64H734.38v156.74c0 28.28-14.86 47.45-39.78 47.45s-39.78-19.17-39.78-47.45V95.64H543.13v158.18c0 96.82 59.44 157.7 151.47 157.7 73.88 0 126.62-41.01 143.9-107.41 21.61 62.53 80.97 107.41 150.88 107.41 68.98 0 127.7-43.69 150.01-104.93 16.45 71.07 70.24 102.54 142.38 102.54h28.28V297.44h-11.03zm-309.64 2.4c-26.36 0-47.93-21.57-47.93-47.93s21.57-47.93 47.93-47.93 47.93 21.57 47.93 47.93-21.57 47.93-47.93 47.93z" fill="#fff"/></g></svg>