<svg id="Camada_1" data-name="Camada 1" xmlns="http://www.w3.org/2000/svg" viewBox="0 0 134.3 48"><defs><style>.cls-1{fill:#ff8000;}.cls-2{fill:#ffce00;}.cls-3{fill:#ff0024;}.cls-4{fill:#fff}</style></defs><circle class="cls-1" cx="24" cy="24" r="24"/><path class="cls-2" d="M24,1.3A20.1,20.1,0,0,0,4,21.4c0,1.1.1,2.1.2,3.2,2.6-6.8,9.7-11.7,18.1-11.7a19.3,19.3,0,0,1,16.3,8.5h.1A8.3,8.3,0,0,1,44,23.2a10.9,10.9,0,0,0,.1-1.8A20.1,20.1,0,0,0,24,1.3"/><path class="cls-3" d="M44,23.2a8.3,8.3,0,0,0-5.3-1.8h-.1c-5.9,0-12.1,5.1-13.9,11.5a9.7,9.7,0,0,0,1.2,8.5H24A20.2,20.2,0,0,1,4.2,24.6a18,18,0,0,0-1,5.7A16.6,16.6,0,0,0,9,42.8a26.3,26.3,0,0,0,7.6,4A22.5,22.5,0,0,0,24,48a23.9,23.9,0,0,0,18-8.2A22.4,22.4,0,0,0,45.8,34c.1-.4.3-.7.4-1.1,1.1-4.1.2-7.6-2.2-9.7"/><path class="cls-4" d="M133.1,30.5c-3.7,0-5.4-2-5.4-5.7V1.8H116.2V18.9a16.3,16.3,0,0,0-29.6,0V9.8H75.3v16c0,2.9-1.6,4.9-4.1,4.9s-4.1-2-4.1-4.9V9.8H55.7V26c0,9.9,6.1,16.1,15.5,16.1,7.6,0,13-4.2,14.7-11a16.4,16.4,0,0,0,30.9.3c1.7,7.3,7.2,10.5,14.6,10.5h2.9V30.5Zm-31.7.2a4.9,4.9,0,1,1,4.9-4.9A4.9,4.9,0,0,1,101.4,30.7Z"/></svg>