<?xml version="1.0" encoding="utf-8"?>
<!-- Generator: Adobe Illustrator 24.2.1, SVG Export Plug-In . SVG Version: 6.00 Build 0)  -->
<svg version="1.1" id="Layer_1" xmlns="http://www.w3.org/2000/svg" xmlns:xlink="http://www.w3.org/1999/xlink" x="0px" y="0px"
	 viewBox="0 0 1310 469" style="enable-background:new 0 0 1310 469;" xml:space="preserve">
<style type="text/css">
	.st0{fill:#FF8000;}
	.st1{fill:#FFCE00;}
	.st2{fill:#FF0024;}
	.st3{fill:#FFFFFF;}
</style>
<g>
	<path class="st0" d="M234.13,0.33c129.33,0,234.17,104.84,234.17,234.17S363.46,468.67,234.13,468.67S-0.04,363.83-0.04,234.5
		S104.8,0.33,234.13,0.33z"/>
	<g>
		<path class="st1" d="M234.58,13.33c-108.07,0-195.67,87.62-195.67,195.71c0,10.54,0.86,20.88,2.46,30.97
			c25.31-66.11,94.41-113.57,175.74-113.57c67.93,0,127.33,33.11,159.82,82.53c0.2,0,0.39-0.02,0.59-0.02
			c21.02,0,38.7,6.67,51.87,18.1c0.54-5.93,0.86-11.93,0.86-18.01C430.25,100.95,342.64,13.33,234.58,13.33"/>
		<path class="st2" d="M429.39,227.05c-13.18-11.43-30.86-18.1-51.87-18.1c-0.2,0-0.39,0.01-0.59,0.02
			c-57.58,0.34-118.15,50.36-135.48,112.03c-9.24,32.86-4.34,62.41,10.93,82.91c-5.86,0.53-11.79,0.84-17.79,0.84
			c-97.53,0-178.37-71.37-193.21-164.74c-6.67,17.43-10.34,36.13-10.34,55.62c0,47.87,21.9,91.06,57.04,121.84
			c21.69,17.34,46.52,30.9,73.52,39.69c22.85,7.44,47.21,11.51,72.54,11.51c70.2,0,133.14-30.93,176.07-79.87
			c14.79-16.86,27.19-35.86,36.69-56.48c1.4-3.73,2.64-7.51,3.72-11.33C461.67,281.63,452.43,247.03,429.39,227.05"/>
	</g>
	<g>
		<path class="st3" d="M1299.02,297.44c-36.43,0-53.2-18.69-53.2-55.12V17.99h-111.68v166.56c-25.39-54.51-80.63-92.27-144.76-92.27
			s-119.37,37.76-144.76,92.27V95.64H734.38v156.74c0,28.28-14.86,47.45-39.78,47.45c-24.92,0-39.78-19.17-39.78-47.45V95.64H543.13
			v158.18c0,96.82,59.44,157.7,151.47,157.7c73.88,0,126.62-41.01,143.9-107.41c21.61,62.53,80.97,107.41,150.88,107.41
			c68.98,0,127.7-43.69,150.01-104.93c16.45,71.07,70.24,102.54,142.38,102.54h28.28V297.44H1299.02z M989.38,299.84
			c-26.36,0-47.93-21.57-47.93-47.93c0-26.36,21.57-47.93,47.93-47.93s47.93,21.57,47.93,47.93
			C1037.31,278.27,1015.74,299.84,989.38,299.84z"/>
	</g>
</g>
</svg>
